<svg width="15" height="16" viewBox="0 0 15 16" fill="none" xmlns="http://www.w3.org/2000/svg">
<mask id="path-1-inside-1_1_20124" fill="white">
<path d="M15 4.23495L0 0.127808L3.9759 15.1278L7.22892 6.73495L15 4.23495Z"/>
</mask>
<path d="M0 0.127808L5.80995 -21.0912L-31.0599 -31.1865L-21.2656 5.76449L0 0.127808ZM15 4.23495L21.7375 25.1779L92.1101 2.53864L20.81 -16.984L15 4.23495ZM7.22892 6.73495L0.491459 -14.208L-9.49349 -10.9958L-13.2842 -1.21577L7.22892 6.73495ZM3.9759 15.1278L-17.2897 20.7645L0.0419881 86.1524L24.489 23.0785L3.9759 15.1278ZM-5.80995 21.3468L9.19005 25.4539L20.81 -16.984L5.80995 -21.0912L-5.80995 21.3468ZM8.26254 -16.708L0.491459 -14.208L13.9664 27.6779L21.7375 25.1779L8.26254 -16.708ZM-13.2842 -1.21577L-16.5372 7.17709L24.489 23.0785L27.742 14.6857L-13.2842 -1.21577ZM25.2416 9.49113L21.2656 -5.50887L-21.2656 5.76449L-17.2897 20.7645L25.2416 9.49113Z" fill="#FFFEFE" mask="url(#path-1-inside-1_1_20124)"/>
</svg>
